<svg width="23" height="24" viewBox="0 0 23 24" fill="none" xmlns="http://www.w3.org/2000/svg">
<path fill-rule="evenodd" clip-rule="evenodd" d="M16.1822 0.626389C15.9947 0.438853 15.7404 0.333496 15.4751 0.333496C15.2099 0.333496 14.9556 0.438853 14.768 0.626389L2.51151 12.8829C2.38588 13.0085 2.29599 13.1654 2.25108 13.3373L0.91775 18.4419C0.828029 18.7853 0.927148 19.1507 1.17818 19.4017C1.42921 19.6527 1.79452 19.7518 2.13801 19.6621L7.24258 18.3288C7.41449 18.2839 7.57133 18.194 7.69696 18.0684L19.9535 5.81184C20.344 5.42131 20.344 4.78815 19.9535 4.39763L16.1822 0.626389ZM4.11759 14.1053L15.4751 2.74771L17.8322 5.10473L6.47461 16.4623L3.28426 17.2956L4.11759 14.1053Z" fill="black"/>
<path d="M1.33301 21.6668C0.780723 21.6668 0.333008 22.1145 0.333008 22.6668C0.333008 23.2191 0.780723 23.6668 1.33301 23.6668H21.333C21.8853 23.6668 22.333 23.2191 22.333 22.6668C22.333 22.1145 21.8853 21.6668 21.333 21.6668H1.33301Z" fill="black"/>
</svg>
